<?xml version="1.0" standalone="no"?>
<!DOCTYPE svg PUBLIC "-//W3C//DTD SVG 1.1//EN" 
  "http://www.w3.org/Graphics/SVG/1.1/DTD/svg11.dtd">
 
<svg width="100%" height="100%" version="1.1" 
  xmlns="http://www.w3.org/2000/svg">
<text x="30" y="30" fill="#7d7d4f" font-family="Verdana" font-size="14" font-weight="bold" font-style="normal" text-anchor="start">Project: thin_hudson</text>
<text x="30" y="70" fill="#7d7d4f" font-family="Verdana" font-size="20" font-weight="bold" font-style="normal" text-anchor="start">Cutting Diagram  - Sheets</text>
 cutlistLayout.setColor("#7d7d4f"); cutlistLayout.setFont("verdana","12px",Font.BOLD); cutlistLayout.drawString("Efficiency&#32;=&#32;52.98%",360,70); cutlistLayout.setColor("#7d7d4f"); cutlistLayout.setFont("verdana","12px",Font.BOLD); cutlistLayout.drawString("Total&#32;used&#32;for&#32;layout:&#32;48.0&#32;&#32;bd.ft.",530,70);<rect x="30" y="110" fill="#cacaaf" width="800.0" height="400.0" stroke="black" stroke-width="2"></rect>
<text x="30" y="100" fill="black" font-family="arial" font-size="10" font-weight="bold" font-style="italic" text-anchor="start">48&quot;&#32;x&#32;96&quot;,&#32;3/4&quot;&#32;generic&#32;24.0&#32;bd.ft.&#32;(86.14%)</text>
<line x1="30" y1="130" x2="50" y2="110" stroke="grey" stroke-width="1" />
<line x1="30" y1="150" x2="70" y2="110" stroke="grey" stroke-width="1" />
<line x1="30" y1="170" x2="90" y2="110" stroke="grey" stroke-width="1" />
<line x1="30" y1="190" x2="110" y2="110" stroke="grey" stroke-width="1" />
<line x1="30" y1="210" x2="130" y2="110" stroke="grey" stroke-width="1" />
<line x1="30" y1="230" x2="150" y2="110" stroke="grey" stroke-width="1" />
<line x1="30" y1="250" x2="170" y2="110" stroke="grey" stroke-width="1" />
<line x1="30" y1="270" x2="190" y2="110" stroke="grey" stroke-width="1" />
<line x1="30" y1="290" x2="210" y2="110" stroke="grey" stroke-width="1" />
<line x1="30" y1="310" x2="230" y2="110" stroke="grey" stroke-width="1" />
<line x1="30" y1="330" x2="250" y2="110" stroke="grey" stroke-width="1" />
<line x1="30" y1="350" x2="270" y2="110" stroke="grey" stroke-width="1" />
<line x1="30" y1="370" x2="290" y2="110" stroke="grey" stroke-width="1" />
<line x1="30" y1="390" x2="310" y2="110" stroke="grey" stroke-width="1" />
<line x1="30" y1="410" x2="330" y2="110" stroke="grey" stroke-width="1" />
<line x1="30" y1="430" x2="350" y2="110" stroke="grey" stroke-width="1" />
<line x1="30" y1="450" x2="370" y2="110" stroke="grey" stroke-width="1" />
<line x1="30" y1="470" x2="390" y2="110" stroke="grey" stroke-width="1" />
<line x1="30" y1="490" x2="410" y2="110" stroke="grey" stroke-width="1" />
<line x1="30" y1="510" x2="430" y2="110" stroke="grey" stroke-width="1" />
<line x1="50.0" y1="510.0" x2="450" y2="110" stroke="grey" stroke-width="1" />
<line x1="70.0" y1="510.0" x2="470" y2="110" stroke="grey" stroke-width="1" />
<line x1="90.0" y1="510.0" x2="490" y2="110" stroke="grey" stroke-width="1" />
<line x1="110.0" y1="510.0" x2="510" y2="110" stroke="grey" stroke-width="1" />
<line x1="130.0" y1="510.0" x2="530" y2="110" stroke="grey" stroke-width="1" />
<line x1="150.0" y1="510.0" x2="550" y2="110" stroke="grey" stroke-width="1" />
<line x1="170.0" y1="510.0" x2="570" y2="110" stroke="grey" stroke-width="1" />
<line x1="190.0" y1="510.0" x2="590" y2="110" stroke="grey" stroke-width="1" />
<line x1="210.0" y1="510.0" x2="610" y2="110" stroke="grey" stroke-width="1" />
<line x1="230.0" y1="510.0" x2="630" y2="110" stroke="grey" stroke-width="1" />
<line x1="250.0" y1="510.0" x2="650" y2="110" stroke="grey" stroke-width="1" />
<line x1="270.0" y1="510.0" x2="670" y2="110" stroke="grey" stroke-width="1" />
<line x1="290.0" y1="510.0" x2="690" y2="110" stroke="grey" stroke-width="1" />
<line x1="310.0" y1="510.0" x2="710" y2="110" stroke="grey" stroke-width="1" />
<line x1="330.0" y1="510.0" x2="730" y2="110" stroke="grey" stroke-width="1" />
<line x1="350.0" y1="510.0" x2="750" y2="110" stroke="grey" stroke-width="1" />
<line x1="370.0" y1="510.0" x2="770" y2="110" stroke="grey" stroke-width="1" />
<line x1="390.0" y1="510.0" x2="790" y2="110" stroke="grey" stroke-width="1" />
<line x1="410.0" y1="510.0" x2="810" y2="110" stroke="grey" stroke-width="1" />
<line x1="430.0" y1="510.0" x2="830" y2="110" stroke="grey" stroke-width="1" />
<line x1="450.0" y1="510.0" x2="830.0" y2="130.0" stroke="grey" stroke-width="1" />
<line x1="470.0" y1="510.0" x2="830.0" y2="150.0" stroke="grey" stroke-width="1" />
<line x1="490.0" y1="510.0" x2="830.0" y2="170.0" stroke="grey" stroke-width="1" />
<line x1="510.0" y1="510.0" x2="830.0" y2="190.0" stroke="grey" stroke-width="1" />
<line x1="530.0" y1="510.0" x2="830.0" y2="210.0" stroke="grey" stroke-width="1" />
<line x1="550.0" y1="510.0" x2="830.0" y2="230.0" stroke="grey" stroke-width="1" />
<line x1="570.0" y1="510.0" x2="830.0" y2="250.0" stroke="grey" stroke-width="1" />
<line x1="590.0" y1="510.0" x2="830.0" y2="270.0" stroke="grey" stroke-width="1" />
<line x1="610.0" y1="510.0" x2="830.0" y2="290.0" stroke="grey" stroke-width="1" />
<line x1="630.0" y1="510.0" x2="830.0" y2="310.0" stroke="grey" stroke-width="1" />
<line x1="650.0" y1="510.0" x2="830.0" y2="330.0" stroke="grey" stroke-width="1" />
<line x1="670.0" y1="510.0" x2="830.0" y2="350.0" stroke="grey" stroke-width="1" />
<line x1="690.0" y1="510.0" x2="830.0" y2="370.0" stroke="grey" stroke-width="1" />
<line x1="710.0" y1="510.0" x2="830.0" y2="390.0" stroke="grey" stroke-width="1" />
<line x1="730.0" y1="510.0" x2="830.0" y2="410.0" stroke="grey" stroke-width="1" />
<line x1="750.0" y1="510.0" x2="830.0" y2="430.0" stroke="grey" stroke-width="1" />
<line x1="770.0" y1="510.0" x2="830.0" y2="450.0" stroke="grey" stroke-width="1" />
<line x1="790.0" y1="510.0" x2="830.0" y2="470.0" stroke="grey" stroke-width="1" />
<line x1="810.0" y1="510.0" x2="830.0" y2="490.0" stroke="grey" stroke-width="1" />
<line x1="830.0" y1="510.0" x2="830.0" y2="510.0" stroke="grey" stroke-width="1" />
<rect x="30.0" y="110.0" fill="#bcbc9a" width="467.0" height="260.0" stroke="black" stroke-width="2"></rect>
<text x="265.5" y="242.0" fill="black" font-family="arial" font-size="8" font-weight="bold" font-style="normal" text-anchor="middle">&#32;backing</text>
<rect x="30.0" y="371.0" fill="#bcbc9a" width="467.0" height="135.0" stroke="black" stroke-width="2"></rect>
<text x="265.5" y="440.5" fill="black" font-family="arial" font-size="8" font-weight="bold" font-style="normal" text-anchor="middle">&#32;top</text>
<rect x="498.0" y="110.0" fill="#bcbc9a" width="260.0" height="129.0" stroke="black" stroke-width="2"></rect>
<text x="630.0" y="176.5" fill="black" font-family="arial" font-size="8" font-weight="bold" font-style="normal" text-anchor="middle">&#32;side</text>
<rect x="498.0" y="240.0" fill="#bcbc9a" width="260.0" height="129.0" stroke="black" stroke-width="2"></rect>
<text x="630.0" y="306.5" fill="black" font-family="arial" font-size="8" font-weight="bold" font-style="normal" text-anchor="middle">&#32;side</text>
<rect x="498.0" y="370.0" fill="#bcbc9a" width="96.0" height="33.0" stroke="black" stroke-width="2"></rect>
<text x="548.0" y="388.5" fill="black" font-family="arial" font-size="8" font-weight="bold" font-style="normal" text-anchor="middle">&#32;midsupport</text>
<rect x="498.0" y="405.0" fill="#bcbc9a" width="96.0" height="33.0" stroke="black" stroke-width="2"></rect>
<text x="548.0" y="423.5" fill="black" font-family="arial" font-size="8" font-weight="bold" font-style="normal" text-anchor="middle">&#32;midsupport</text>
<rect x="498.0" y="439.0" fill="#bcbc9a" width="96.0" height="33.0" stroke="black" stroke-width="2"></rect>
<text x="548.0" y="457.5" fill="black" font-family="arial" font-size="8" font-weight="bold" font-style="normal" text-anchor="middle">&#32;midsupport</text>
<rect x="498.0" y="473.0" fill="#bcbc9a" width="96.0" height="33.0" stroke="black" stroke-width="2"></rect>
<text x="548.0" y="491.5" fill="black" font-family="arial" font-size="8" font-weight="bold" font-style="normal" text-anchor="middle">&#32;midsupport</text>
<rect x="595.0" y="370.0" fill="#bcbc9a" width="96.0" height="17.0" stroke="black" stroke-width="2"></rect>
<text x="645.0" y="380.5" fill="black" font-family="arial" font-size="8" font-weight="bold" font-style="normal" text-anchor="middle">&#32;brace</text>
<rect x="595.0" y="388.0" fill="#bcbc9a" width="96.0" height="17.0" stroke="black" stroke-width="2"></rect>
<text x="645.0" y="398.5" fill="black" font-family="arial" font-size="8" font-weight="bold" font-style="normal" text-anchor="middle">&#32;brace</text>
<rect x="595.0" y="406.0" fill="#bcbc9a" width="96.0" height="17.0" stroke="black" stroke-width="2"></rect>
<text x="645.0" y="416.5" fill="black" font-family="arial" font-size="8" font-weight="bold" font-style="normal" text-anchor="middle">&#32;brace</text>
<rect x="595.0" y="423.0" fill="#bcbc9a" width="96.0" height="17.0" stroke="black" stroke-width="2"></rect>
<text x="645.0" y="433.5" fill="black" font-family="arial" font-size="8" font-weight="bold" font-style="normal" text-anchor="middle">&#32;brace</text>
<rect x="595.0" y="441.0" fill="#bcbc9a" width="96.0" height="17.0" stroke="black" stroke-width="2"></rect>
<text x="645.0" y="451.5" fill="black" font-family="arial" font-size="8" font-weight="bold" font-style="normal" text-anchor="middle">&#32;brace</text>
<rect x="595.0" y="459.0" fill="#bcbc9a" width="96.0" height="17.0" stroke="black" stroke-width="2"></rect>
<text x="645.0" y="469.5" fill="black" font-family="arial" font-size="8" font-weight="bold" font-style="normal" text-anchor="middle">&#32;brace</text>
<rect x="595.0" y="476.0" fill="#bcbc9a" width="96.0" height="17.0" stroke="black" stroke-width="2"></rect>
<text x="645.0" y="486.5" fill="black" font-family="arial" font-size="8" font-weight="bold" font-style="normal" text-anchor="middle">&#32;brace</text>
</svg>
