<?xml version="1.0" standalone="no"?>
<!DOCTYPE svg PUBLIC "-//W3C//DTD SVG 1.1//EN" 
  "http://www.w3.org/Graphics/SVG/1.1/DTD/svg11.dtd">
 
<svg width="100%" height="100%" version="1.1" 
  xmlns="http://www.w3.org/2000/svg">
<text x="30" y="30" fill="#7d7d4f" font-family="Verdana" font-size="14" font-weight="bold" font-style="normal" text-anchor="start">Project: thin_hudson</text>
<rect x="30" y="60" fill="#cacaaf" width="800.0" height="400.0" stroke="black" stroke-width="2"></rect>
<text x="30" y="50" fill="black" font-family="arial" font-size="10" font-weight="bold" font-style="italic" text-anchor="start">48&quot;&#32;x&#32;96&quot;,&#32;3/4&quot;&#32;generic&#32;24.0&#32;bd.ft.&#32;(19.81%)</text>
<line x1="30" y1="80" x2="50" y2="60" stroke="grey" stroke-width="1" />
<line x1="30" y1="100" x2="70" y2="60" stroke="grey" stroke-width="1" />
<line x1="30" y1="120" x2="90" y2="60" stroke="grey" stroke-width="1" />
<line x1="30" y1="140" x2="110" y2="60" stroke="grey" stroke-width="1" />
<line x1="30" y1="160" x2="130" y2="60" stroke="grey" stroke-width="1" />
<line x1="30" y1="180" x2="150" y2="60" stroke="grey" stroke-width="1" />
<line x1="30" y1="200" x2="170" y2="60" stroke="grey" stroke-width="1" />
<line x1="30" y1="220" x2="190" y2="60" stroke="grey" stroke-width="1" />
<line x1="30" y1="240" x2="210" y2="60" stroke="grey" stroke-width="1" />
<line x1="30" y1="260" x2="230" y2="60" stroke="grey" stroke-width="1" />
<line x1="30" y1="280" x2="250" y2="60" stroke="grey" stroke-width="1" />
<line x1="30" y1="300" x2="270" y2="60" stroke="grey" stroke-width="1" />
<line x1="30" y1="320" x2="290" y2="60" stroke="grey" stroke-width="1" />
<line x1="30" y1="340" x2="310" y2="60" stroke="grey" stroke-width="1" />
<line x1="30" y1="360" x2="330" y2="60" stroke="grey" stroke-width="1" />
<line x1="30" y1="380" x2="350" y2="60" stroke="grey" stroke-width="1" />
<line x1="30" y1="400" x2="370" y2="60" stroke="grey" stroke-width="1" />
<line x1="30" y1="420" x2="390" y2="60" stroke="grey" stroke-width="1" />
<line x1="30" y1="440" x2="410" y2="60" stroke="grey" stroke-width="1" />
<line x1="30" y1="460" x2="430" y2="60" stroke="grey" stroke-width="1" />
<line x1="50.0" y1="460.0" x2="450" y2="60" stroke="grey" stroke-width="1" />
<line x1="70.0" y1="460.0" x2="470" y2="60" stroke="grey" stroke-width="1" />
<line x1="90.0" y1="460.0" x2="490" y2="60" stroke="grey" stroke-width="1" />
<line x1="110.0" y1="460.0" x2="510" y2="60" stroke="grey" stroke-width="1" />
<line x1="130.0" y1="460.0" x2="530" y2="60" stroke="grey" stroke-width="1" />
<line x1="150.0" y1="460.0" x2="550" y2="60" stroke="grey" stroke-width="1" />
<line x1="170.0" y1="460.0" x2="570" y2="60" stroke="grey" stroke-width="1" />
<line x1="190.0" y1="460.0" x2="590" y2="60" stroke="grey" stroke-width="1" />
<line x1="210.0" y1="460.0" x2="610" y2="60" stroke="grey" stroke-width="1" />
<line x1="230.0" y1="460.0" x2="630" y2="60" stroke="grey" stroke-width="1" />
<line x1="250.0" y1="460.0" x2="650" y2="60" stroke="grey" stroke-width="1" />
<line x1="270.0" y1="460.0" x2="670" y2="60" stroke="grey" stroke-width="1" />
<line x1="290.0" y1="460.0" x2="690" y2="60" stroke="grey" stroke-width="1" />
<line x1="310.0" y1="460.0" x2="710" y2="60" stroke="grey" stroke-width="1" />
<line x1="330.0" y1="460.0" x2="730" y2="60" stroke="grey" stroke-width="1" />
<line x1="350.0" y1="460.0" x2="750" y2="60" stroke="grey" stroke-width="1" />
<line x1="370.0" y1="460.0" x2="770" y2="60" stroke="grey" stroke-width="1" />
<line x1="390.0" y1="460.0" x2="790" y2="60" stroke="grey" stroke-width="1" />
<line x1="410.0" y1="460.0" x2="810" y2="60" stroke="grey" stroke-width="1" />
<line x1="430.0" y1="460.0" x2="830" y2="60" stroke="grey" stroke-width="1" />
<line x1="450.0" y1="460.0" x2="830.0" y2="80.0" stroke="grey" stroke-width="1" />
<line x1="470.0" y1="460.0" x2="830.0" y2="100.0" stroke="grey" stroke-width="1" />
<line x1="490.0" y1="460.0" x2="830.0" y2="120.0" stroke="grey" stroke-width="1" />
<line x1="510.0" y1="460.0" x2="830.0" y2="140.0" stroke="grey" stroke-width="1" />
<line x1="530.0" y1="460.0" x2="830.0" y2="160.0" stroke="grey" stroke-width="1" />
<line x1="550.0" y1="460.0" x2="830.0" y2="180.0" stroke="grey" stroke-width="1" />
<line x1="570.0" y1="460.0" x2="830.0" y2="200.0" stroke="grey" stroke-width="1" />
<line x1="590.0" y1="460.0" x2="830.0" y2="220.0" stroke="grey" stroke-width="1" />
<line x1="610.0" y1="460.0" x2="830.0" y2="240.0" stroke="grey" stroke-width="1" />
<line x1="630.0" y1="460.0" x2="830.0" y2="260.0" stroke="grey" stroke-width="1" />
<line x1="650.0" y1="460.0" x2="830.0" y2="280.0" stroke="grey" stroke-width="1" />
<line x1="670.0" y1="460.0" x2="830.0" y2="300.0" stroke="grey" stroke-width="1" />
<line x1="690.0" y1="460.0" x2="830.0" y2="320.0" stroke="grey" stroke-width="1" />
<line x1="710.0" y1="460.0" x2="830.0" y2="340.0" stroke="grey" stroke-width="1" />
<line x1="730.0" y1="460.0" x2="830.0" y2="360.0" stroke="grey" stroke-width="1" />
<line x1="750.0" y1="460.0" x2="830.0" y2="380.0" stroke="grey" stroke-width="1" />
<line x1="770.0" y1="460.0" x2="830.0" y2="400.0" stroke="grey" stroke-width="1" />
<line x1="790.0" y1="460.0" x2="830.0" y2="420.0" stroke="grey" stroke-width="1" />
<line x1="810.0" y1="460.0" x2="830.0" y2="440.0" stroke="grey" stroke-width="1" />
<line x1="830.0" y1="460.0" x2="830.0" y2="460.0" stroke="grey" stroke-width="1" />
<rect x="30.0" y="60.0" fill="#bcbc9a" width="454.0" height="17.0" stroke="black" stroke-width="2"></rect>
<text x="259.0" y="70.5" fill="black" font-family="arial" font-size="8" font-weight="bold" font-style="normal" text-anchor="middle">&#32;base&#32;plank</text>
<rect x="30.0" y="78.0" fill="#bcbc9a" width="454.0" height="17.0" stroke="black" stroke-width="2"></rect>
<text x="259.0" y="88.5" fill="black" font-family="arial" font-size="8" font-weight="bold" font-style="normal" text-anchor="middle">&#32;base&#32;plank</text>
<rect x="30.0" y="95.0" fill="#bcbc9a" width="454.0" height="17.0" stroke="black" stroke-width="2"></rect>
<text x="259.0" y="105.5" fill="black" font-family="arial" font-size="8" font-weight="bold" font-style="normal" text-anchor="middle">&#32;base&#32;plank</text>
<rect x="30.0" y="113.0" fill="#bcbc9a" width="454.0" height="17.0" stroke="black" stroke-width="2"></rect>
<text x="259.0" y="123.5" fill="black" font-family="arial" font-size="8" font-weight="bold" font-style="normal" text-anchor="middle">&#32;base&#32;plank</text>
<rect x="30.0" y="131.0" fill="#bcbc9a" width="454.0" height="17.0" stroke="black" stroke-width="2"></rect>
<text x="259.0" y="141.5" fill="black" font-family="arial" font-size="8" font-weight="bold" font-style="normal" text-anchor="middle">&#32;base&#32;plank</text>
<rect x="30.0" y="148.0" fill="#bcbc9a" width="454.0" height="17.0" stroke="black" stroke-width="2"></rect>
<text x="259.0" y="158.5" fill="black" font-family="arial" font-size="8" font-weight="bold" font-style="normal" text-anchor="middle">&#32;base&#32;plank</text>
<rect x="30.0" y="166.0" fill="#bcbc9a" width="454.0" height="17.0" stroke="black" stroke-width="2"></rect>
<text x="259.0" y="176.5" fill="black" font-family="arial" font-size="8" font-weight="bold" font-style="normal" text-anchor="middle">&#32;base&#32;plank</text>
<rect x="30.0" y="184.0" fill="#bcbc9a" width="454.0" height="17.0" stroke="black" stroke-width="2"></rect>
<text x="259.0" y="194.5" fill="black" font-family="arial" font-size="8" font-weight="bold" font-style="normal" text-anchor="middle">&#32;base&#32;plank</text>
<rect x="30.0" y="201.0" fill="#bcbc9a" width="96.0" height="17.0" stroke="black" stroke-width="2"></rect>
<text x="80.0" y="211.5" fill="black" font-family="arial" font-size="8" font-weight="bold" font-style="normal" text-anchor="middle">&#32;brace</text>
</svg>
